<svg xmlns="http://www.w3.org/2000/svg" version="1.1" xmlns:xlink="http://www.w3.org/1999/xlink" xmlns:svgjs="http://svgjs.dev/svgjs" width="1000" height="239" viewBox="0 0 1000 239"><g transform="matrix(1,0,0,1,-0.6060600467902759,-0.46956236503777404)"><svg viewBox="0 0 396 95" data-background-color="#ffffff" preserveAspectRatio="xMidYMid meet" height="239" width="1000" xmlns="http://www.w3.org/2000/svg" xmlns:xlink="http://www.w3.org/1999/xlink"><g id="tight-bounds" transform="matrix(1,0,0,1,0.23999977852895427,0.18664743741842926)"><svg viewBox="0 0 395.52 94.62670643421926" height="94.62670643421926" width="395.52"><g><svg viewBox="0 0 534.7420137962044 127.93506158357773" height="94.62670643421926" width="395.52"><g><svg viewBox="0 0 395.52 127.93506158357773" height="127.93506158357773" width="395.52"><g><svg viewBox="0 0 395.52 127.93506158357773" height="127.93506158357773" width="395.52"><g><svg viewBox="0 0 395.52 127.93506158357773" height="127.93506158357773" width="395.52"><g transform="matrix(1,0,0,1,0,0)"><svg width="395.52" viewBox="3.049999952316284 -36.79999923706055 171.87998962402344 55.150001525878906" height="127.93506158357773" data-palette-color="#668cf6"><g class="undefined-text-0" data-fill-palette-color="primary" id="text-0"><path d="M7.3 3.8L7.3 3.8Q4.9 3.1 3.98 2.4 3.05 1.7 3.05 0.65L3.05 0.65Q3.05-0.15 3.5-1.6 3.95-3.05 4.83-5.03 5.7-7 6.93-9.4 8.15-11.8 9.7-14.55L9.7-14.55Q8.4-14.6 7.38-14.63 6.35-14.65 5.7-14.65L5.7-14.65Q6-15.4 7.4-15.95 8.8-16.5 11.1-16.9L11.1-16.9Q13.05-20.15 15.28-23.1 17.5-26.05 19.75-28.53 22-31 24.25-32.88 26.5-34.75 28.55-35.85L28.55-35.85Q28.6-36.2 28.63-36.45 28.65-36.7 28.65-36.8L28.65-36.8Q29.35-36.8 30.53-36.45 31.7-36.1 32.83-35.6 33.95-35.1 34.83-34.58 35.7-34.05 35.8-33.7L35.8-33.7Q34.15-30.8 32.55-25.03 30.95-19.25 29.9-11.2L29.9-11.2Q29.65-9.2 29.48-6.65 29.3-4.1 29.3-0.95L29.3-0.95Q29.3 0.15 29.3 1.3 29.3 2.45 29.4 3.7L29.4 3.7Q29.3 3.75 29.2 3.75 29.1 3.75 28.8 3.75L28.8 3.75Q28.1 3.75 27.18 3.53 26.25 3.3 25.38 2.98 24.5 2.65 23.88 2.25 23.25 1.85 23.1 1.55L23.1 1.55Q23.05 0.9 23.05 0.28 23.05-0.35 23.05-1.05L23.05-1.05Q23.05-4.15 23.28-7.35 23.5-10.55 24.05-13.95L24.05-13.95Q23.35-14 22.2-14.08 21.05-14.15 19.63-14.2 18.2-14.25 16.57-14.33 14.95-14.4 13.4-14.45L13.4-14.45Q12.2-12.2 11.15-9.98 10.1-7.75 9.35-5.5L9.35-5.5Q8.5-3.1 7.98-0.7 7.45 1.7 7.3 3.8ZM26.6-26.25L26.6-26.25Q26.8-26.95 27.08-28.18 27.35-29.4 27.6-30.75L27.6-30.75Q26.35-30.3 24.83-29.1 23.3-27.9 21.68-26.13 20.05-24.35 18.38-22.13 16.7-19.9 15.15-17.4L15.15-17.4Q19.35-17.75 24.7-17.85L24.7-17.85Q25.1-19.95 25.58-22.03 26.05-24.1 26.6-26.25ZM37-3.35L37-3.35Q37-3.8 37.07-4.48 37.15-5.15 37.35-6.28 37.55-7.4 37.87-9 38.2-10.6 38.7-12.85L38.7-12.85Q38.8-13.35 39.15-14.45 39.5-15.55 40.07-16.78 40.65-18 41.47-19.15 42.3-20.3 43.45-20.85L43.45-20.85Q44.3-20.65 45.7-19.83 47.1-19 48.1-17.55L48.1-17.55Q46.95-16.25 46.17-14.95 45.4-13.65 44.77-12.25 44.15-10.85 43.62-9.35 43.1-7.85 42.45-6.2L42.45-6.2Q41.9-4.8 41.45-3.33 41-1.85 40.95-0.75L40.95-0.75Q40.95 0.15 40.92 0.53 40.9 0.9 40.65 0.9L40.65 0.9Q40.45 0.9 39.85 0.65 39.25 0.4 38.62-0.13 38-0.65 37.5-1.45 37-2.25 37-3.35ZM46.55-25.05L46.55-25.05Q46.55-25.35 46.7-25.95L46.7-25.95Q46.45-26.2 46.27-26.7 46.1-27.2 46.1-27.6L46.1-27.6Q46.1-28.05 46.22-28.83 46.35-29.6 46.55-30.5 46.75-31.4 47.05-32.38 47.35-33.35 47.65-34.15L47.65-34.15Q48.25-34.15 49.12-33.83 50-33.5 50.9-32.98 51.8-32.45 52.55-31.83 53.3-31.2 53.7-30.65L53.7-30.65Q53.15-30.1 52.25-29.13 51.35-28.15 50.5-27.08 49.65-26 48.95-25.05 48.25-24.1 48.05-23.7L48.05-23.7Q47.45-23.8 47-24.23 46.55-24.65 46.55-25.05ZM45.1 16.55L45.1 16.55Q44.4 16.35 44.3 15.05L44.3 15.05Q44.1 14.4 44.02 13.5 43.95 12.6 43.95 11.45L43.95 11.45Q43.95 10.4 44.3 8.58 44.65 6.75 45.27 4.45 45.9 2.15 46.8-0.53 47.7-3.2 48.8-5.95L48.8-5.95Q50.15-9.4 51.15-11.93 52.15-14.45 52.82-16.3 53.5-18.15 53.92-19.35 54.35-20.55 54.6-21.4L54.6-21.4Q54.8-22 55.2-22.85 55.6-23.7 56.12-24.58 56.65-25.45 57.2-26.23 57.75-27 58.2-27.4L58.2-27.4Q59.95-27.15 61.5-26.5 63.05-25.85 63.4-25.25L63.4-25.25Q62.7-24.6 61.8-23.23 60.9-21.85 60.05-20.23 59.2-18.6 58.5-16.9 57.8-15.2 57.45-13.9L57.45-13.9Q57.95-14.75 58.75-15.75 59.55-16.75 61.2-18.5L61.2-18.5Q63.05-20.4 64.67-21.43 66.3-22.45 67.5-22.45L67.5-22.45Q69.4-22.45 70.62-21.4 71.85-20.35 71.85-18.7L71.85-18.7Q71.85-15.1 70.65-11.58 69.45-8.05 67.2-5.2L67.2-5.2Q66.35-4.1 65.2-3.1 64.05-2.1 62.8-1.33 61.55-0.55 60.35-0.1 59.15 0.35 58.2 0.35L58.2 0.35Q57.3 0.35 56.62-0.03 55.95-0.4 55.7-0.95L55.7-0.95Q57.65-2.1 59.5-4.15 61.35-6.2 62.92-8.88 64.5-11.55 65.67-14.65 66.85-17.75 67.45-20.95L67.45-20.95Q65.55-19.95 64.02-18.78 62.5-17.6 61-15.7L61-15.7Q59.2-13.5 58.15-12.15 57.1-10.8 56.42-9.85 55.75-8.9 55.32-8.08 54.9-7.25 54.4-6.05L54.4-6.05Q53.7-4.45 52.77-1.83 51.85 0.8 50.87 4.05 49.9 7.3 48.92 10.98 47.95 14.65 47.05 18.3L47.05 18.3Q46.5 18.2 46.1 17.5L46.1 17.5Q45.7 17.05 45.52 16.85 45.35 16.65 45.1 16.55ZM73.69-3.35L73.69-3.35Q73.69-3.8 73.77-4.48 73.84-5.15 74.04-6.28 74.24-7.4 74.57-9 74.89-10.6 75.39-12.85L75.39-12.85Q75.49-13.35 75.84-14.45 76.19-15.55 76.77-16.78 77.34-18 78.17-19.15 78.99-20.3 80.14-20.85L80.14-20.85Q80.99-20.65 82.39-19.83 83.79-19 84.79-17.55L84.79-17.55Q83.64-16.25 82.87-14.95 82.09-13.65 81.47-12.25 80.84-10.85 80.32-9.35 79.79-7.85 79.14-6.2L79.14-6.2Q78.59-4.8 78.14-3.33 77.69-1.85 77.64-0.75L77.64-0.75Q77.64 0.15 77.62 0.53 77.59 0.9 77.34 0.9L77.34 0.9Q77.14 0.9 76.54 0.65 75.94 0.4 75.32-0.13 74.69-0.65 74.19-1.45 73.69-2.25 73.69-3.35ZM83.24-25.05L83.24-25.05Q83.24-25.35 83.39-25.95L83.39-25.95Q83.14-26.2 82.97-26.7 82.79-27.2 82.79-27.6L82.79-27.6Q82.79-28.05 82.92-28.83 83.04-29.6 83.24-30.5 83.44-31.4 83.74-32.38 84.04-33.35 84.34-34.15L84.34-34.15Q84.94-34.15 85.82-33.83 86.69-33.5 87.59-32.98 88.49-32.45 89.24-31.83 89.99-31.2 90.39-30.65L90.39-30.65Q89.84-30.1 88.94-29.13 88.04-28.15 87.19-27.08 86.34-26 85.64-25.05 84.94-24.1 84.74-23.7L84.74-23.7Q84.14-23.8 83.69-24.23 83.24-24.65 83.24-25.05ZM85.74-8.8L85.74-8.8Q85.74-11.65 86.92-14.33 88.09-17 90.02-19.07 91.94-21.15 94.42-22.43 96.89-23.7 99.54-23.7L99.54-23.7Q102.14-23.7 103.54-22.4 104.94-21.1 104.94-18.7L104.94-18.7Q104.94-17.55 104.62-16.48 104.29-15.4 103.77-14.55 103.24-13.7 102.54-13.18 101.84-12.65 101.14-12.65L101.14-12.65Q100.54-12.65 99.92-13.03 99.29-13.4 98.89-14L98.89-14Q102.24-17.05 102.24-19.55L102.24-19.55Q102.24-21 101.09-21L101.09-21Q100.09-21 98.59-20.05 97.09-19.1 95.69-17.55L95.69-17.55Q93.54-15.15 92.42-12.23 91.29-9.3 91.29-6.1L91.29-6.1Q91.29-2.05 93.09-1.25L93.09-1.25Q93.84-1.35 94.84-1.7 95.84-2.05 96.99-2.63 98.14-3.2 99.37-3.95 100.59-4.7 101.74-5.55L101.74-5.55Q101.94-5.4 102.09-5.1 102.24-4.8 102.24-4.55L102.24-4.55Q101.39-3.5 100.29-2.5 99.19-1.5 97.99-0.68 96.79 0.15 95.67 0.73 94.54 1.3 93.69 1.45L93.69 1.45Q92.04 1.3 90.59 0.43 89.14-0.45 88.07-1.85 86.99-3.25 86.37-5.05 85.74-6.85 85.74-8.8ZM96.34 14.9L96.34 14.9Q96.34 14.6 96.54 14.35 96.74 14.1 96.99 13.85L96.99 13.85Q97.59 14.4 98.01 14.7 98.44 15 98.81 15.2 99.19 15.4 99.59 15.45 99.99 15.5 100.54 15.5L100.54 15.5Q103.14 15.5 105.49 14.13 107.84 12.75 109.91 10.15 111.99 7.55 113.69 3.8 115.39 0.05 116.69-4.7L116.69-4.7Q116.09-4.1 115.21-3.38 114.34-2.65 113.39-2 112.44-1.35 111.51-0.8 110.59-0.25 109.94 0L109.94 0Q109.09-0.15 108.36-0.73 107.64-1.3 107.09-2.15 106.54-3 106.24-4.08 105.94-5.15 105.94-6.35L105.94-6.35Q105.94-8.3 106.66-10.35 107.39-12.4 108.59-14.38 109.79-16.35 111.41-18.1 113.04-19.85 114.86-21.15 116.69-22.45 118.56-23.23 120.44-24 122.24-24L122.24-24Q123.99-24 124.86-23.28 125.74-22.55 126.14-20.8L126.14-20.8Q125.59-21.1 124.74-21.1L124.74-21.1Q123.54-21.1 121.96-20.15 120.39-19.2 118.76-17.68 117.14-16.15 115.54-14.18 113.94-12.2 112.71-10.15 111.49-8.1 110.71-6.15 109.94-4.2 109.94-2.65L109.94-2.65Q109.94-2.3 109.99-2.23 110.04-2.15 110.14-2.15L110.14-2.15Q110.59-2.15 111.36-2.65 112.14-3.15 113.11-3.93 114.09-4.7 115.14-5.73 116.19-6.75 117.14-7.8L117.14-7.8Q119.29-10.2 121.06-13.18 122.84-16.15 123.89-18.95L123.89-18.95Q125.24-18.85 126.29-18.5 127.34-18.15 127.74-17.75L127.74-17.75Q126.04-13.85 125.01-11.2 123.99-8.55 123.24-6.5L123.24-6.5Q121.89-2.9 120.71 0.08 119.54 3.05 118.31 5.58 117.09 8.1 115.66 10.28 114.24 12.45 112.44 14.45L112.44 14.45Q111.59 15.4 110.51 16.13 109.44 16.85 108.31 17.35 107.19 17.85 106.11 18.1 105.04 18.35 104.14 18.35L104.14 18.35Q102.94 18.35 101.69 18.07 100.44 17.8 99.36 17.32 98.29 16.85 97.49 16.23 96.69 15.6 96.34 14.9ZM146.84-20.7L146.84-20.7Q146.64-17.6 145.74-15.38 144.84-13.15 143.16-11.48 141.49-9.8 139.09-8.45 136.69-7.1 133.49-5.85L133.49-5.85Q133.49-5.55 133.46-5.23 133.44-4.9 133.44-4.55L133.44-4.55Q133.44-3.9 133.54-3.2 133.64-2.5 133.89-1.9 134.14-1.3 134.59-0.93 135.04-0.55 135.74-0.55L135.74-0.55Q137.09-0.55 138.39-1.15 139.69-1.75 140.86-2.63 142.04-3.5 143.06-4.53 144.09-5.55 144.89-6.4L144.89-6.4Q145.39-5.95 145.74-5.55L145.74-5.55Q143.49-2.55 140.81-0.58 138.14 1.4 135.74 1.95L135.74 1.95Q132.29 1.55 130.36-0.58 128.44-2.7 128.44-5.7L128.44-5.7Q128.44-7.75 129.01-9.88 129.59-12 130.61-13.98 131.64-15.95 133.01-17.7 134.39-19.45 135.96-20.75 137.54-22.05 139.21-22.8 140.89-23.55 142.54-23.55L142.54-23.55Q144.84-23.25 146.84-20.7ZM143.39-19.05L143.39-19.05Q142.04-18.85 140.59-17.95 139.14-17.05 137.86-15.55 136.59-14.05 135.54-12.05 134.49-10.05 133.89-7.75L133.89-7.75Q137.89-9.75 140.54-12.68 143.19-15.6 143.39-19.05ZM157.23-24.25L157.23-24.25Q158.53-23.85 159.68-22.48 160.83-21.1 161.38-19.45L161.38-19.45Q160.83-18.1 159.68-16.2 158.53-14.3 157.38-12.33 156.23-10.35 155.31-8.58 154.38-6.8 154.23-5.65L154.23-5.65Q155.03-6.5 156.01-7.63 156.98-8.75 157.91-9.88 158.83-11 159.63-11.93 160.43-12.85 160.88-13.3L160.88-13.3Q161.83-14.3 163.13-15.63 164.43-16.95 165.86-18.13 167.28-19.3 168.73-20.13 170.18-20.95 171.38-20.95L171.38-20.95Q172.68-20.95 173.56-20.08 174.43-19.2 174.93-18.25L174.93-18.25Q174.93-18.15 174.56-17.98 174.18-17.8 173.48-17L173.48-17Q172.78-16.1 171.91-14.53 171.03-12.95 170.21-11.13 169.38-9.3 168.83-7.4 168.28-5.5 168.28-3.95L168.28-3.95Q168.28-2.7 168.61-2.35 168.93-2 169.53-2L169.53-2Q170.08-2 170.68-2.25 171.28-2.5 171.63-2.5L171.63-2.5Q171.83-2.4 171.96-2.08 172.08-1.75 172.08-1.5L172.08-1.5Q171.68-1.15 171.13-0.8 170.58-0.45 169.98-0.15 169.38 0.15 168.81 0.35 168.23 0.55 167.78 0.55L167.78 0.55Q166.33 0.55 165.41 0.13 164.48-0.3 163.96-1 163.43-1.7 163.23-2.68 163.03-3.65 163.03-4.75L163.03-4.75Q163.03-5.35 163.13-6.1 163.23-6.85 163.53-7.88 163.83-8.9 164.38-10.33 164.93-11.75 165.78-13.75L165.78-13.75Q165.68-13.75 164.43-13.05 163.18-12.35 161.73-10.9L161.73-10.9Q159.38-8.65 157.51-6.45 155.63-4.25 153.68-1.55L153.68-1.55Q152.58 0 151.76 1.07 150.93 2.15 150.33 2.5L150.33 2.5Q149.28 1.9 148.78 0.83 148.28-0.25 148.03-1.4L148.03-1.4Q148.03-2.35 148.31-3.8 148.58-5.25 149.06-7.03 149.53-8.8 150.23-10.75 150.93-12.7 151.78-14.65L151.78-14.65Q153.68-19.05 155.26-21.55 156.83-24.05 157.23-24.25Z" fill="#668cf6" data-fill-palette-color="primary"></path></g></svg></g></svg></g></svg></g></svg></g><g transform="matrix(1,0,0,1,425.72239759840465,19.765967014662756)"><svg viewBox="0 0 109.01961619779978 88.40312755425222" height="88.40312755425222" width="109.01961619779978"><g><svg version="1.1" xmlns="http://www.w3.org/2000/svg" xmlns:xlink="http://www.w3.org/1999/xlink" x="0" y="0" viewBox="0 -1.1920928955078125e-7 100.0009994506836 81.09000396728516" enable-background="new 0 0 100.001 81.09" xml:space="preserve" width="109.01961619779978" height="88.40312755425222" class="icon-icon-0" data-fill-palette-color="accent" id="icon-0"><path fill="#7a7a7a" d="M49.387 25.815c-11.813 0-21.391 9.577-21.391 21.391s9.577 21.391 21.391 21.391 21.391-9.577 21.391-21.391S61.2 25.815 49.387 25.815zM47.247 48.686c-4.135 0-7.487-3.354-7.487-7.49 0-4.132 3.353-7.485 7.487-7.485 4.136 0 7.487 3.354 7.487 7.485C54.734 45.331 51.383 48.686 47.247 48.686z" data-fill-palette-color="accent"></path><path fill="#7a7a7a" d="M99.198 10.446c0-0.002-0.003-0.004-0.003-0.005-0.145-0.314-0.305-0.612-0.482-0.895-0.209-0.314-0.425-0.623-0.688-0.888-1.344-1.34-3.278-1.983-5.92-1.983H40.655c0 0-0.224-0.014-0.349-0.019-0.097-0.387-0.277-1.082-0.277-1.082-0.392-1.463-0.872-3.25-3.054-4.553C35.715 0.306 34.062 0 31.575 0H18.566c-3.458 0-4.845 0.396-5.858 0.987-1.929 1.129-2.709 3.326-3.126 4.88 0 0-0.079 0.313-0.155 0.614-0.307 0-0.727 0-0.727 0s0 0.166 0 0.194c-0.369 0-0.771 0-0.771 0C3.112 6.676 0 9.798 0 14.637v28.402 34.287c0 2.076 1.688 3.764 3.763 3.764h92.475c2.074 0 3.763-1.688 3.763-3.764V14.604C100 12.936 99.714 11.579 99.198 10.446zM95.145 76.236c-2.104 0-88.188 0-90.291 0 0-1.176 0-20.178 0-36.771 0-3.159 0-6.23 0-9.074h22.418c5.082-6.671 13.083-10.994 22.115-10.994 0.9 0 1.787 0.053 2.664 0.139 0.131 0.012 0.258 0.02 0.387 0.033 0.836 0.092 1.656 0.224 2.467 0.389 0.146 0.03 0.296 0.062 0.441 0.092 0.812 0.18 1.609 0.388 2.393 0.635 0.103 0.033 0.203 0.069 0.302 0.103 1.644 0.54 3.216 1.23 4.705 2.052 0.092 0.052 0.187 0.1 0.276 0.15 0.713 0.406 1.406 0.843 2.078 1.306 0.101 0.069 0.197 0.139 0.297 0.208 0.674 0.479 1.328 0.984 1.957 1.518 0.056 0.045 0.108 0.1 0.162 0.144 0.651 0.564 1.279 1.151 1.877 1.771 0.002 0.003 0.004 0.003 0.004 0.007 0.002 0 0.002 0 0.002 0 0.744 0.775 1.449 1.592 2.101 2.449h23.646C95.145 48.188 95.145 74.84 95.145 76.236z" data-fill-palette-color="accent"></path></svg></g></svg></g></svg></g><defs></defs></svg><rect width="395.52" height="94.62670643421926" fill="none" stroke="none" visibility="hidden"></rect></g></svg></g></svg>